<?xml version="1.0" standalone="no"?>
<!DOCTYPE svg PUBLIC "-//W3C//DTD SVG 20010904//EN"
 "http://www.w3.org/TR/2001/REC-SVG-20010904/DTD/svg10.dtd">
<svg version="1.0" xmlns="http://www.w3.org/2000/svg"
 width="1352.000000pt" height="1352.000000pt" viewBox="0 0 1352.000000 1352.000000"
 preserveAspectRatio="xMidYMid meet">
<metadata>
Created by potrace 1.14, written by Peter Selinger 2001-2017
</metadata>
<g transform="translate(0.000000,1352.000000) scale(0.100000,-0.100000)"
fill="#000000" stroke="none">
<path d="M5 9205 c0 -380 2 -435 15 -436 8 0 1286 -1 2839 -1 l2825 -1 1 424
c0 233 -1 430 -3 437 -3 9 -580 12 -2841 12 l-2836 0 0 -435z"/>
<path d="M8635 8646 c8 -77 54 -138 123 -160 91 -30 223 -26 305 10 49 22 97
94 97 145 l0 37 -93 0 c-88 0 -93 -1 -95 -22 -5 -68 -132 -76 -145 -8 l-6 30
-94 0 -95 0 3 -32z"/>
<path d="M1502 8428 c-176 -24 -317 -133 -377 -293 -26 -68 -29 -212 -6 -280
47 -140 147 -242 286 -291 70 -24 184 -32 272 -18 155 25 283 122 345 262 29
64 32 87 32 192 -1 88 -4 101 -37 171 -72 150 -223 251 -386 258 -30 1 -57 3
-60 5 -3 1 -34 -1 -69 -6z m184 -263 c58 -41 83 -100 81 -188 -2 -56 -8 -81
-26 -110 -81 -131 -268 -121 -332 18 -21 46 -24 143 -6 191 15 37 51 84 66 84
6 0 11 4 11 8 0 18 47 30 106 28 49 -2 69 -8 100 -31z"/>
<path d="M2454 8424 c-230 -47 -381 -243 -361 -469 8 -88 15 -114 48 -179 102
-200 378 -293 612 -206 73 28 187 113 187 140 0 4 -22 28 -50 53 -27 25 -50
44 -50 42 0 -2 -16 12 -35 32 l-34 36 -38 -33 c-68 -61 -130 -76 -220 -56
-160 36 -179 323 -26 397 78 38 190 17 244 -45 12 -14 27 -26 33 -26 6 0 45
31 86 70 41 38 78 70 83 70 32 1 -77 120 -110 120 -7 0 -13 4 -13 9 0 7 -83
38 -127 46 -10 2 -18 4 -18 5 0 8 -165 4 -211 -6z"/>
<path d="M4288 8435 c-1 -2 -25 -6 -53 -9 -102 -11 -192 -54 -269 -130 -56
-56 -108 -148 -121 -216 -14 -75 -6 -190 15 -230 6 -11 8 -20 5 -20 -3 0 6
-23 22 -52 52 -97 145 -175 253 -213 171 -60 407 -16 521 98 40 40 110 147
104 158 -3 4 -1 10 4 13 22 14 33 159 18 240 -24 135 -136 269 -267 319 -41
16 -102 31 -139 33 -36 3 -71 7 -78 9 -6 2 -13 2 -15 0z m112 -256 c44 -21 64
-43 88 -97 27 -60 22 -156 -9 -214 -42 -76 -155 -114 -239 -80 -112 46 -151
218 -75 333 47 72 154 98 235 58z"/>
<path d="M6088 8429 c-132 -20 -279 -116 -319 -208 -8 -17 -17 -31 -21 -31 -5
0 -7 -3 -6 -7 1 -5 -4 -21 -11 -37 -45 -111 -26 -303 40 -398 11 -14 19 -29
19 -33 0 -9 59 -63 105 -94 182 -125 468 -105 623 43 l46 45 -48 42 c-26 23
-59 54 -74 68 -57 55 -58 55 -94 20 -128 -123 -331 -59 -350 111 -25 214 185
331 344 191 20 -17 39 -31 43 -31 5 0 20 11 34 25 59 57 126 115 133 115 37 0
-54 91 -129 128 -100 51 -219 69 -335 51z"/>
<path d="M2 7986 l3 -430 128 -1 127 0 1 60 c0 33 1 117 1 188 0 70 2 127 3
127 2 0 18 -26 35 -57 18 -32 37 -61 42 -64 5 -3 9 -9 9 -13 -1 -3 5 -16 13
-29 7 -12 29 -47 48 -78 l35 -55 62 -1 62 0 87 148 c48 82 90 149 93 149 3 0
6 -69 7 -152 0 -84 1 -169 1 -188 l1 -35 130 0 130 0 -2 430 -3 430 -118 0
-117 1 -13 -28 c-6 -15 -15 -28 -19 -28 -5 0 -8 -5 -8 -10 0 -6 -11 -27 -24
-48 -13 -20 -63 -103 -110 -184 -62 -105 -91 -145 -102 -141 -7 3 -14 9 -14
15 0 5 -29 55 -64 111 -35 56 -86 140 -114 187 -82 137 -63 125 -196 125
l-116 1 2 -430z"/>
<path d="M3005 8410 c-1 -3 -3 -177 -3 -386 0 -210 -2 -387 -6 -392 -3 -6 -2
-13 4 -17 6 -4 8 -11 5 -16 -4 -5 -4 -17 -1 -27 5 -15 20 -17 138 -16 73 1
136 2 141 3 4 1 7 71 7 156 l0 155 39 0 39 0 48 -92 c73 -143 105 -202 114
-212 9 -9 306 -13 315 -4 3 3 -27 61 -66 129 -39 68 -85 149 -102 179 -17 30
-39 69 -49 85 -23 39 -23 68 2 90 11 10 20 22 20 26 0 5 43 79 96 165 53 86
98 162 100 169 4 9 -33 12 -141 12 l-147 0 -24 -38 c-13 -21 -24 -43 -24 -49
0 -5 -4 -10 -10 -10 -5 0 -10 -5 -10 -11 0 -14 -110 -209 -119 -210 -3 0 -18
-2 -32 -4 -14 -2 -31 0 -37 4 -8 4 -12 59 -14 161 l-3 155 -138 0 c-76 1 -140
-2 -142 -5z"/>
<path d="M4879 8416 c-6 -3 -4 -843 2 -851 9 -12 477 -12 554 -1 111 17 212
93 232 174 28 109 -21 222 -110 254 l-29 10 36 30 c47 39 68 86 69 156 1 105
-55 173 -171 208 -46 14 -107 17 -319 19 -145 1 -264 1 -264 1z m418 -205 c32
-1 56 -43 48 -81 -5 -24 -13 -32 -38 -37 -27 -6 -95 -8 -140 -4 -9 1 -12 18
-11 59 1 31 3 59 3 62 1 4 60 5 138 1z m75 -341 c19 -23 20 -52 3 -82 -12 -20
-87 -39 -106 -27 -7 4 -17 5 -22 2 -12 -7 -87 -10 -88 -3 -1 7 -2 91 0 116 1
19 6 20 98 18 87 -2 99 -5 115 -24z"/>
<path d="M6619 8390 c0 -14 -1 -207 -1 -429 l-1 -405 141 0 c88 -1 142 3 143
9 1 6 3 71 4 145 1 74 3 141 4 148 2 20 78 16 84 -5 3 -10 39 -80 80 -157 l74
-138 157 -2 c117 -1 156 2 156 11 0 7 -20 47 -45 89 -25 41 -45 79 -45 84 0 4
-7 13 -15 20 -8 7 -15 21 -15 31 0 11 -3 19 -7 19 -5 0 -24 30 -43 68 -19 37
-38 69 -41 72 -3 3 -11 15 -18 28 -10 19 -9 28 6 53 52 84 176 287 186 304 7
11 20 32 30 47 9 14 17 28 17 31 0 2 -67 4 -148 5 l-148 0 -83 -148 c-46 -81
-87 -153 -91 -160 -8 -12 -89 -21 -91 -11 -1 4 -2 76 -3 161 l-1 155 -142 0
-143 0 -1 -25z"/>
<path d="M7509 8410 c-1 -3 -2 -195 -3 -427 -1 -374 0 -423 14 -424 47 -4 237
-4 248 -1 10 4 137 184 150 215 2 4 37 57 78 118 l74 111 -3 -220 c-2 -190 0
-221 13 -224 8 -2 71 -3 140 -3 l125 1 3 430 2 430 -136 -1 -135 0 -144 -219
c-78 -120 -145 -214 -147 -209 -2 4 -3 101 -3 216 1 114 -1 208 -4 208 -21 4
-271 4 -272 -1z"/>
<path d="M8475 7994 c0 -232 3 -426 7 -430 13 -12 258 -8 271 5 12 12 109 161
214 328 32 51 61 92 64 93 4 0 6 -95 7 -211 0 -115 2 -213 6 -216 7 -7 266 -6
273 1 4 4 7 656 4 827 l-1 26 -135 0 -135 1 -48 -72 c-26 -39 -51 -78 -57 -88
-43 -74 -179 -277 -183 -273 -3 3 -5 100 -5 217 l0 213 -141 0 -141 1 0 -422z"/>
<path d="M12839 7449 c-26 -16 18 -129 62 -160 73 -52 280 -60 368 -15 50 27
89 93 91 156 0 25 -1 25 -77 23 -43 0 -85 -1 -94 -2 -10 -1 -19 -13 -22 -29
-6 -30 -37 -49 -74 -46 -38 2 -52 13 -66 46 l-13 33 -83 0 c-46 0 -87 -3 -92
-6z"/>
<path d="M6037 7213 c-2 -1 -28 -5 -59 -7 -71 -6 -188 -60 -244 -113 -121
-112 -168 -289 -122 -456 34 -125 114 -218 232 -272 118 -54 223 -63 371 -31
46 9 136 60 185 104 59 53 61 43 -21 116 -24 22 -58 53 -76 69 l-31 29 -34
-31 c-66 -63 -136 -82 -216 -59 -84 24 -133 96 -137 201 -6 166 147 267 291
191 27 -14 60 -37 72 -50 l24 -25 31 30 c18 16 57 52 87 80 l55 50 3 -34 3
-35 124 0 124 0 0 -311 c1 -171 3 -314 5 -318 4 -5 229 -7 271 -2 6 1 9 112 8
316 l-2 315 124 0 125 0 0 113 0 112 -378 -1 c-207 -1 -383 -2 -389 -3 -9 -1
-13 -23 -13 -73 l0 -72 -43 42 c-23 23 -48 42 -55 42 -7 0 -12 4 -12 9 0 9
-74 40 -140 60 -32 9 -157 20 -163 14z"/>
<path d="M10337 7214 c-1 -1 -24 -5 -51 -8 -96 -13 -204 -71 -273 -146 -40
-43 -90 -143 -99 -196 -44 -260 94 -477 341 -534 180 -41 363 7 474 123 l34
36 -53 48 c-30 26 -70 63 -89 80 -37 34 -51 40 -51 24 0 -12 -85 -74 -108 -79
-74 -17 -144 -3 -198 38 -73 56 -89 207 -32 294 36 55 80 79 151 82 68 2 112
-14 169 -65 l33 -29 46 41 c25 23 65 59 87 79 23 20 42 39 42 41 0 3 -15 20
-32 38 -78 77 -195 125 -321 132 -37 2 -68 2 -70 1z"/>
<path d="M27 7192 c-15 -3 -14 -10 12 -55 16 -29 50 -92 76 -142 27 -49 51
-94 55 -100 4 -5 38 -68 75 -140 37 -71 72 -135 77 -142 15 -19 0 -48 -31 -59
-25 -10 -92 -10 -132 -2 -7 2 -18 -17 -26 -42 -7 -25 -15 -51 -18 -58 -2 -7
-5 -14 -5 -17 0 -3 -7 -21 -15 -41 -8 -20 -13 -40 -10 -44 3 -4 29 -14 57 -21
148 -36 272 1 370 110 26 29 82 120 133 218 49 92 97 184 108 203 11 19 44 82
74 140 30 58 59 109 64 114 5 6 9 16 9 24 0 7 7 21 16 29 9 9 11 18 6 22 -8 5
-203 6 -259 2 -7 -1 -52 -81 -99 -178 l-86 -178 -40 85 c-21 47 -49 105 -60
130 -11 25 -31 68 -44 95 l-23 50 -134 0 c-73 0 -141 -1 -150 -3z"/>
<path d="M973 7193 c-6 -2 -9 -814 -4 -853 1 -3 64 -5 141 -5 134 -1 140 0
141 20 1 11 2 54 4 95 1 41 2 80 3 86 1 6 38 11 95 11 50 1 103 4 117 7 14 3
36 7 50 10 51 12 130 58 165 99 51 60 57 67 49 67 -3 0 -2 6 4 13 11 13 28 99
27 132 -7 155 -96 261 -255 305 -39 11 -509 22 -537 13z m440 -231 c36 -7 67
-60 61 -105 -3 -18 -18 -44 -35 -59 -27 -26 -36 -28 -107 -28 l-79 0 1 98 1
97 40 5 c34 4 62 2 118 -8z"/>
<path d="M1828 7170 c-3 -21 -2 -793 1 -826 1 -11 462 -11 536 0 52 8 135 38
135 48 0 4 7 8 15 8 8 0 15 5 15 11 0 5 5 7 10 4 6 -3 10 -2 10 3 0 5 10 20
23 33 38 39 59 104 56 178 -2 75 -21 121 -64 165 -61 62 -117 77 -295 81 -80
2 -148 4 -152 5 -5 0 -8 22 -8 48 l0 48 213 -1 c116 0 219 1 227 3 12 2 15 22
15 102 0 54 -4 102 -8 107 -5 4 -170 8 -367 8 l-358 0 -4 -25z m503 -518 c23
-29 18 -72 -12 -94 -22 -16 -95 -24 -191 -19 -15 1 -18 11 -18 70 l0 68 101
-1 c92 -2 103 -4 120 -24z"/>
<path d="M3000 7190 c-5 -3 -17 -24 -26 -45 -15 -39 -45 -108 -64 -150 -47
-105 -60 -136 -60 -140 0 -2 -12 -30 -26 -62 -15 -32 -32 -71 -39 -88 -7 -16
-22 -50 -33 -75 -11 -25 -39 -90 -62 -144 -23 -54 -47 -107 -53 -118 -19 -29
-1 -33 145 -33 l132 0 26 67 c15 37 30 71 34 75 4 4 77 8 163 8 l156 1 14 -33
c7 -18 14 -36 14 -40 1 -5 6 -17 12 -28 6 -11 10 -23 9 -27 -5 -18 43 -24 168
-22 74 1 136 2 137 3 1 1 -60 145 -91 216 -8 17 -42 95 -76 175 -34 80 -73
169 -86 198 -13 29 -24 55 -24 57 0 2 -11 28 -24 57 -13 29 -33 76 -45 103
l-21 50 -136 0 c-74 1 -139 -2 -144 -5z m150 -320 c0 -10 5 -22 10 -25 6 -3
10 -14 10 -24 0 -9 9 -36 20 -59 31 -64 29 -67 -47 -66 -38 0 -73 2 -80 2 -8
1 -4 20 13 57 13 31 24 59 24 64 0 5 7 25 15 45 16 37 35 40 35 6z"/>
<path d="M3719 7192 c-12 -2 -14 -66 -13 -420 1 -229 2 -422 3 -428 1 -7 48
-10 141 -10 l140 0 1 31 c0 16 0 87 1 158 l0 127 132 0 132 0 -1 -150 c-1 -94
3 -154 10 -159 8 -6 227 -8 270 -2 12 1 13 836 2 848 -12 11 -276 10 -280 -2
-1 -5 -3 -74 -2 -152 l1 -143 -133 0 -132 0 2 150 c1 94 -2 150 -8 151 -47 2
-255 3 -266 1z"/>
<path d="M4672 6765 l3 -430 132 0 c107 0 134 2 143 15 44 62 259 393 264 406
15 38 18 -6 18 -205 0 -147 4 -211 12 -214 9 -3 252 -2 266 2 4 1 5 834 1 851
0 3 -61 5 -134 5 l-132 0 -25 -40 c-13 -22 -28 -44 -33 -50 -5 -5 -59 -86
-120 -180 l-112 -170 -5 220 -5 220 -138 0 -137 0 2 -430z"/>
<path d="M7304 7185 c-2 -6 -3 -199 -2 -430 l3 -420 128 0 c71 0 133 2 138 5
5 3 56 78 113 165 58 88 110 165 115 172 6 7 11 16 11 20 0 4 13 23 28 41 l27
33 0 -215 c-1 -185 1 -215 15 -218 8 -2 71 -4 140 -3 l125 0 0 430 0 429 -125
1 c-69 0 -130 -1 -137 -3 -7 -2 -27 -27 -45 -55 -18 -29 -36 -53 -40 -55 -5
-2 -8 -7 -8 -12 0 -8 -138 -222 -160 -247 -5 -7 -15 -24 -22 -38 -6 -14 -14
-25 -18 -25 -4 0 -7 97 -6 215 1 184 -1 215 -14 216 -78 6 -263 2 -266 -6z"/>
<path d="M8213 7187 c-2 -4 -3 -82 -2 -174 2 -208 19 -266 97 -341 26 -25 93
-61 126 -68 11 -3 32 -8 46 -11 65 -14 164 -9 240 11 l26 7 -1 -138 0 -138
133 0 c73 0 137 2 141 5 5 3 8 196 8 430 l-2 425 -138 0 c-75 0 -137 -2 -138
-5 -1 -3 -2 -82 -3 -177 -1 -94 -3 -173 -6 -175 -37 -28 -155 -30 -196 -3 -42
27 -52 68 -52 213 0 74 -3 137 -6 140 -9 8 -267 8 -273 -1z"/>
<path d="M9155 7175 c-2 -11 -3 -204 -2 -430 l2 -410 350 0 350 0 5 23 c3 14
4 63 2 111 l-3 86 -210 -1 c-115 0 -209 2 -210 5 -1 8 -1 84 0 96 1 7 62 10
171 10 94 -1 174 2 178 5 4 3 8 49 8 102 0 79 -3 97 -16 100 -8 2 -88 3 -177
3 -90 -1 -164 2 -164 5 -1 3 -2 26 -3 51 l-2 46 205 -1 206 -1 0 110 -1 109
-342 1 c-335 0 -343 0 -347 -20z"/>
<path d="M10819 7185 c-1 -5 -2 -196 -2 -423 -1 -267 2 -416 8 -420 6 -4 69
-7 142 -7 111 -1 132 1 135 14 2 9 4 78 3 153 0 87 3 139 10 141 5 3 23 4 39
3 26 -1 34 -10 69 -76 22 -41 58 -111 82 -155 l43 -80 160 0 161 -1 -41 76
c-23 41 -51 91 -63 110 -12 19 -38 64 -57 100 -20 36 -47 86 -62 112 l-26 47
66 108 c37 59 75 123 86 142 11 19 35 59 54 88 19 30 35 59 37 65 3 14 -270
17 -289 3 -7 -5 -22 -28 -35 -50 -12 -22 -49 -88 -82 -147 -32 -60 -62 -109
-66 -109 -37 -7 -81 -4 -84 5 -2 6 -3 77 -2 159 0 125 -2 147 -15 148 -86 6
-270 2 -271 -6z"/>
<path d="M11709 7190 c-1 -3 -2 -195 -3 -427 -1 -370 1 -422 14 -425 13 -3
224 -3 258 1 6 0 12 5 12 10 0 10 267 421 273 421 2 0 4 -91 4 -202 1 -112 2
-210 2 -218 1 -13 21 -15 134 -14 72 1 135 2 139 3 4 0 7 193 5 428 l-2 427
-128 0 c-71 1 -132 -1 -137 -4 -4 -3 -53 -75 -109 -160 -55 -85 -105 -162
-111 -170 -6 -8 -22 -34 -37 -57 -15 -24 -30 -43 -33 -43 -3 0 -5 98 -5 217
l0 217 -137 0 c-76 1 -139 -1 -139 -4z"/>
<path d="M12682 7185 c-11 -17 -8 -836 3 -844 6 -4 66 -7 135 -7 l124 1 92
138 c51 75 89 137 85 137 -3 0 2 5 12 11 9 5 17 14 17 20 0 5 16 32 35 59 19
27 35 55 35 60 0 6 4 9 9 6 5 -3 9 -98 8 -211 0 -113 3 -208 7 -212 4 -5 68
-8 142 -8 l134 0 -2 430 -3 430 -128 0 c-71 0 -132 -2 -136 -5 -9 -6 -111
-160 -111 -167 0 -2 -6 -10 -12 -18 -7 -7 -46 -65 -87 -129 -41 -64 -77 -114
-79 -111 -3 3 -5 100 -5 215 0 187 -1 210 -16 211 -89 6 -254 2 -259 -6z"/>
<path d="M444 6009 c-2 -4 -2 -21 0 -38 2 -18 -2 -36 -10 -42 -8 -6 -14 -8
-14 -4 0 4 -6 2 -13 -4 -8 -6 -16 -8 -20 -5 -9 9 -127 -25 -185 -53 -161 -79
-229 -238 -183 -431 7 -29 17 -52 22 -52 5 0 9 -7 9 -15 0 -8 21 -36 48 -62
45 -47 120 -90 192 -111 38 -12 130 -27 143 -24 8 2 10 -16 9 -65 -2 -37 -14
-34 143 -34 47 0 93 0 103 0 14 1 19 9 19 34 1 64 0 63 50 66 25 1 55 7 65 12
10 5 18 8 18 5 0 -3 15 0 33 5 124 40 221 126 252 225 42 134 13 289 -70 377
-22 23 -129 91 -145 92 -3 0 -11 4 -17 8 -7 5 -13 6 -13 2 0 -3 -8 -2 -17 4
-19 9 -105 24 -135 23 -18 -1 -20 6 -20 61 -1 15 -6 28 -12 28 -39 5 -249 3
-252 -2z m-3 -316 c4 -35 3 -287 -2 -294 -9 -15 -94 19 -122 49 -20 21 -27 41
-31 83 -7 88 24 132 114 160 34 10 40 10 41 2z m324 -7 c85 -20 123 -119 84
-218 -12 -29 -106 -84 -130 -76 -9 3 -13 45 -13 157 l-1 152 25 -7 c14 -3 30
-7 35 -8z"/>
<path d="M1525 5973 c-196 -45 -335 -205 -348 -402 -5 -64 15 -176 39 -223 77
-153 229 -246 411 -253 202 -8 385 88 454 238 13 29 28 55 34 59 5 4 7 8 4 8
-3 0 0 26 6 58 14 65 10 153 -9 207 -53 153 -174 269 -318 306 -65 16 -206 18
-273 2z m205 -235 c50 -22 86 -65 102 -123 44 -152 -41 -285 -180 -285 -79 0
-143 45 -175 122 -27 66 -10 182 36 238 50 61 140 81 217 48z"/>
<path d="M5329 5982 l-26 -3 0 -435 0 -434 1418 0 1419 0 1 33 c0 40 0 783 0
817 l-1 25 -1392 0 c-766 0 -1405 -1 -1419 -3z"/>
<path d="M2249 5972 l-36 -3 1 -427 1 -427 140 0 140 0 1 98 c1 54 4 100 7
104 4 3 51 7 104 8 105 3 176 16 227 42 107 54 168 149 172 265 6 188 -100
303 -306 334 -39 6 -395 11 -451 6z m416 -235 c36 -19 48 -39 51 -84 3 -39 -1
-50 -26 -74 -28 -29 -43 -32 -133 -31 -63 0 -62 0 -59 106 l3 97 72 -2 c40 -1
81 -6 92 -12z"/>
<path d="M3630 5970 c-5 -3 -46 -83 -92 -178 -66 -135 -86 -170 -96 -160 -7 7
-12 15 -12 19 0 4 -19 47 -42 96 -23 48 -43 90 -43 93 -1 3 -15 33 -31 68
l-29 62 -153 0 -153 0 24 -42 c57 -100 101 -183 100 -188 -1 -3 2 -9 7 -15 10
-13 32 -53 105 -190 32 -60 64 -119 72 -130 40 -59 -26 -94 -138 -72 -24 5
-27 1 -57 -87 -34 -98 -39 -126 -22 -126 13 0 13 0 62 -15 143 -42 303 26 396
168 25 39 122 218 204 377 18 36 36 67 40 68 5 2 8 11 8 21 0 9 4 21 9 27 5 5
28 45 51 89 23 44 47 86 52 93 6 7 8 15 5 19 -8 7 -255 10 -267 3z"/>
<path d="M3978 5972 c-31 -3 -38 -7 -39 -25 0 -24 0 -649 1 -763 l0 -72 130 1
130 1 1 45 c0 25 0 108 0 184 0 75 1 137 3 137 6 0 66 -98 66 -108 0 -6 3 -12
8 -14 4 -1 30 -40 57 -85 l50 -83 62 0 c62 0 63 0 88 40 14 22 25 43 25 47 0
3 6 14 14 22 7 9 28 43 46 76 18 33 39 67 46 76 8 8 14 21 14 27 0 7 4 12 8
12 4 0 9 -81 10 -181 1 -99 4 -184 7 -189 2 -4 61 -7 129 -7 l124 1 0 87 c0
49 3 93 7 99 3 5 1 10 -5 10 -6 0 -9 4 -6 8 5 8 6 53 5 147 0 28 0 55 1 60 1
6 2 12 0 15 -5 15 -4 283 2 286 3 2 3 17 -1 32 -4 15 -6 46 -5 70 1 33 -2 42
-15 43 -23 1 -140 1 -183 0 -35 -1 -39 -5 -86 -83 -75 -125 -90 -150 -113
-193 -12 -22 -24 -42 -28 -45 -6 -5 -27 -43 -58 -103 -8 -15 -18 -25 -22 -23
-4 3 -30 42 -56 88 -27 46 -53 85 -57 86 -4 2 -8 8 -8 14 0 6 -13 29 -29 53
-16 23 -45 71 -65 106 -58 103 -54 100 -143 102 -43 1 -95 1 -115 -1z"/>
<path d="M11 4750 c-4 -3 -7 -198 -6 -435 l0 -430 1500 0 1500 0 0 435 0 435
-1493 0 c-822 0 -1497 -2 -1501 -5z"/>
</g>
</svg>
