<svg width="169" height="72" viewBox="0 0 169 72" fill="none" xmlns="http://www.w3.org/2000/svg">
<g clip-path="url(#clip0_17_8)">
<path d="M12.7339 15.3046H9.78388L6.40939 21.0063L2.95002 15.3046H0V26.0435H3.26837V21.3064L5.58169 25.0789H7.1522L9.46553 21.1349L9.48675 26.0435H12.7551L12.7339 15.3046Z" fill="black"/>
<path d="M19.7374 23.3427C20.0769 23.3427 20.3741 23.2784 20.6712 23.1498C20.9683 23.0211 21.223 22.8497 21.4352 22.6353C21.6687 22.3995 21.8385 22.1209 21.9446 21.7993C22.0719 21.4564 22.1356 21.092 22.1356 20.6633C22.1356 20.2346 22.0719 19.8702 21.9446 19.5487C21.8172 19.2057 21.6475 18.9271 21.4352 18.7127C21.223 18.4769 20.9683 18.3055 20.6712 18.1768C20.3953 18.0482 20.0769 17.9839 19.7374 17.9839C19.3978 17.9839 19.0795 18.0482 18.8036 18.1768C18.5277 18.3055 18.273 18.4769 18.0395 18.7127C17.8273 18.9485 17.6575 19.2272 17.5302 19.5487C17.4028 19.8702 17.3392 20.256 17.3392 20.6633C17.3392 21.0706 17.4028 21.4564 17.5302 21.7993C17.6575 22.1209 17.8273 22.3995 18.0395 22.6353C18.273 22.8711 18.5064 23.0426 18.8036 23.1498C19.0795 23.2998 19.3978 23.3427 19.7374 23.3427ZM19.7374 26.2793C18.8672 26.2793 18.082 26.1506 17.3392 25.872C16.6176 25.5933 15.9809 25.2075 15.4503 24.7145C14.9197 24.2001 14.4953 23.5999 14.1981 22.914C13.901 22.228 13.7524 21.4778 13.7524 20.6847C13.7524 19.8702 13.901 19.12 14.1981 18.4555C14.4953 17.7696 14.9197 17.1694 15.4503 16.6764C15.9809 16.162 16.6176 15.7761 17.3392 15.4975C18.082 15.2188 18.8672 15.0902 19.7374 15.0902C20.6075 15.0902 21.414 15.2188 22.1356 15.4975C22.8572 15.7761 23.4939 16.162 24.0244 16.6764C24.555 17.1694 24.9795 17.7696 25.2766 18.4555C25.5737 19.1414 25.7435 19.8702 25.7435 20.6847C25.7435 21.4993 25.595 22.228 25.2766 22.914C24.9795 23.5999 24.5763 24.2001 24.0244 24.7145C23.4939 25.2075 22.8572 25.6148 22.1356 25.872C21.3928 26.1506 20.6075 26.2793 19.7374 26.2793Z" fill="black"/>
<path d="M32.068 26.2793C31.219 26.2793 30.4338 26.1507 29.691 25.872C28.9694 25.5934 28.3327 25.2075 27.8021 24.7145C27.2715 24.2215 26.8683 23.6213 26.5712 22.9354C26.2741 22.2495 26.1255 21.4993 26.1255 20.6633C26.1255 19.8274 26.2741 19.0771 26.5712 18.3912C26.8683 17.7053 27.2715 17.1051 27.8021 16.6121C28.3327 16.1191 28.9694 15.7333 29.691 15.4546C30.4126 15.176 31.219 15.0474 32.068 15.0474C33.1079 15.0474 34.0417 15.2403 34.827 15.6047C35.6335 15.9691 36.3126 16.5049 36.822 17.1909L34.5511 19.2272C34.2327 18.8199 33.8932 18.5198 33.5111 18.3055C33.1291 18.0697 32.7047 17.9625 32.2378 17.9625C31.8557 17.9625 31.5162 18.0268 31.219 18.1554C30.9219 18.284 30.646 18.4555 30.4338 18.6913C30.2216 18.9271 30.0518 19.2057 29.9244 19.5487C29.7971 19.8702 29.7334 20.2346 29.7334 20.6633C29.7334 21.0706 29.7971 21.4564 29.9244 21.7779C30.0518 22.0995 30.2216 22.3781 30.4338 22.6139C30.6672 22.8497 30.9219 23.0212 31.219 23.1498C31.5162 23.2784 31.8557 23.3427 32.2378 23.3427C32.7047 23.3427 33.1291 23.2355 33.5111 23.0212C33.8932 22.7854 34.254 22.4853 34.5511 22.078L36.822 24.1143C36.2914 24.8003 35.6335 25.3361 34.827 25.7005C34.0205 26.0864 33.1079 26.2793 32.068 26.2793Z" fill="black"/>
<path d="M44.6959 21.0491L41.4063 20.7062L44.4624 15.2831H48.1977L44.6959 21.0491ZM40.0692 22.1638V19.2915H44.1016V22.1423H40.0692V22.1638ZM37.5225 26.0435V15.3046H41.1092V26.0435H37.5225ZM44.1441 26.0435L41.5124 21.0063L44.3563 19.3129L48.1765 26.0221H44.1441V26.0435Z" fill="black"/>
<path d="M53.9493 23.3427C54.2889 23.3427 54.586 23.2784 54.8831 23.1498C55.1802 23.0211 55.4349 22.8497 55.6471 22.6353C55.8594 22.3995 56.0504 22.1209 56.1565 21.7993C56.2838 21.4564 56.3475 21.092 56.3475 20.6633C56.3475 20.2346 56.2838 19.8702 56.1565 19.5487C56.0292 19.2057 55.8594 18.9271 55.6471 18.7127C55.4349 18.4769 55.1802 18.3055 54.8831 18.1768C54.6072 18.0482 54.2889 17.9839 53.9493 17.9839C53.6097 17.9839 53.2914 18.0482 53.0155 18.1768C52.7396 18.3055 52.4849 18.4769 52.2514 18.7127C52.0392 18.9485 51.8694 19.2272 51.7421 19.5487C51.6147 19.8702 51.5511 20.256 51.5511 20.6633C51.5511 21.0706 51.6147 21.4564 51.7421 21.7993C51.8694 22.1209 52.0392 22.3995 52.2514 22.6353C52.4849 22.8711 52.7183 23.0426 53.0155 23.1498C53.2914 23.2998 53.6097 23.3427 53.9493 23.3427ZM53.9493 26.2793C53.0791 26.2793 52.2939 26.1506 51.5511 25.872C50.8295 25.5933 50.1928 25.2075 49.6622 24.7145C49.1316 24.2001 48.7072 23.5999 48.41 22.914C48.1129 22.228 47.9644 21.4778 47.9644 20.6847C47.9644 19.8702 48.1129 19.12 48.41 18.4555C48.7072 17.7696 49.1316 17.1694 49.6622 16.6764C50.1928 16.162 50.8295 15.7761 51.5511 15.4975C52.2939 15.2188 53.0791 15.0902 53.9493 15.0902C54.8194 15.0902 55.6259 15.2188 56.3475 15.4975C57.0691 15.7761 57.7058 16.162 58.2576 16.6764C58.7882 17.1694 59.2126 17.7696 59.5098 18.4555C59.8069 19.1414 59.9554 19.8702 59.9554 20.6847C59.9554 21.4993 59.8069 22.228 59.5098 22.914C59.2126 23.5999 58.8094 24.2001 58.2576 24.7145C57.727 25.2075 57.0903 25.6148 56.3475 25.872C55.6259 26.1506 54.8194 26.2793 53.9493 26.2793Z" fill="black"/>
<path d="M64.4547 19.4201H65.9827C66.2799 19.4201 66.5133 19.3558 66.6407 19.2272C66.7892 19.0986 66.8529 18.9056 66.8529 18.6484C66.8529 18.3912 66.7892 18.1768 66.6407 18.0482C66.4921 17.8982 66.2799 17.8339 65.9827 17.8339H64.4547V19.4201ZM64.4547 23.5142H66.4497C66.7468 23.5142 66.959 23.4498 67.1076 23.2998C67.2561 23.1498 67.341 22.9354 67.341 22.6568C67.341 22.3781 67.2561 22.1852 67.1076 22.0351C66.959 21.8851 66.7468 21.8208 66.4497 21.8208H64.4547V23.5142ZM60.9316 26.0435V15.3046H66.3223C67.6382 15.3046 68.6569 15.5618 69.3785 16.0334C70.1 16.5264 70.4608 17.2123 70.4608 18.1125C70.4608 18.9914 70.1213 19.6773 69.4633 20.1917C68.8054 20.6847 67.8928 20.942 66.768 20.942L67.0651 20.106C68.2749 20.106 69.2087 20.3418 69.909 20.8348C70.5882 21.3064 70.949 22.0137 70.949 22.9354C70.949 23.8785 70.567 24.6502 69.8241 25.2075C69.0813 25.7648 67.9989 26.0435 66.6194 26.0435H60.9316Z" fill="black"/>
<path d="M77.2521 26.2793C76.4031 26.2793 75.6179 26.1507 74.8751 25.872C74.1535 25.5934 73.5168 25.2075 72.9862 24.7145C72.4556 24.2215 72.0524 23.6213 71.7553 22.9354C71.4581 22.2495 71.3096 21.4993 71.3096 20.6633C71.3096 19.8274 71.4581 19.0771 71.7553 18.3912C72.0524 17.7053 72.4556 17.1051 72.9862 16.6121C73.5168 16.1191 74.1535 15.7333 74.8751 15.4546C75.5966 15.176 76.4031 15.0474 77.2521 15.0474C78.292 15.0474 79.2258 15.2403 80.0111 15.6047C80.8175 15.9691 81.4967 16.5049 82.0273 17.1909L79.7564 19.2272C79.438 18.8199 79.0985 18.5198 78.7165 18.3055C78.3344 18.0697 77.91 17.9625 77.4431 17.9625C77.061 17.9625 76.7215 18.0268 76.4244 18.1554C76.1272 18.284 75.8513 18.4555 75.6391 18.6913C75.4269 18.9271 75.2571 19.2057 75.1297 19.5487C75.0024 19.8702 74.9387 20.2346 74.9387 20.6633C74.9387 21.0706 75.0024 21.4564 75.1297 21.7779C75.2571 22.0995 75.4269 22.3781 75.6391 22.6139C75.8513 22.8497 76.1272 23.0212 76.4244 23.1498C76.7215 23.2784 77.061 23.3427 77.4431 23.3427C77.91 23.3427 78.3344 23.2355 78.7165 23.0212C79.0985 22.7854 79.4593 22.4853 79.7564 22.078L82.0273 24.1143C81.4967 24.8003 80.8388 25.3361 80.0111 25.7005C79.2258 26.0864 78.3132 26.2793 77.2521 26.2793Z" fill="black"/>
<path d="M89.9015 21.0491L86.6119 20.7062L89.668 15.2831H93.4033L89.9015 21.0491ZM85.2748 22.1638V19.2915H89.3072V22.1423H85.2748V22.1638ZM82.728 26.0435V15.3046H86.3147V26.0435H82.728ZM89.3497 26.0435L86.6968 21.0063L89.5619 19.3129L93.3821 26.0221H89.3497V26.0435Z" fill="black"/>
<path d="M93.8062 26.0435V15.3046H97.3292V20.8777L101.001 15.3046H104.375V26.0435H100.852V20.4704L97.2019 26.0435H93.8062Z" fill="black"/>
<path d="M111.23 14.683C110.021 14.683 109.172 14.4472 108.662 13.997C108.174 13.5255 107.92 12.8824 107.92 12.025H110.297C110.297 12.368 110.36 12.6038 110.488 12.7752C110.636 12.9253 110.87 13.011 111.209 13.011C111.57 13.011 111.803 12.9253 111.952 12.7752C112.101 12.6038 112.164 12.368 112.164 12.025H114.541C114.541 12.8824 114.286 13.5255 113.756 13.997C113.289 14.4472 112.44 14.683 111.23 14.683ZM105.946 26.0435V15.3046H109.469V20.8777L113.119 15.2831H116.515V26.022H112.992V20.449L109.342 26.022H105.946V26.0435Z" fill="black"/>
<path d="M5.05095 39.7833L0.105957 30.5663H3.88368L7.00348 37.2754L5.05095 39.7833ZM1.86748 38.5186C2.50417 38.6901 2.99231 38.733 3.33188 38.6901C3.69267 38.6258 3.98979 38.4115 4.2657 38.0256L4.77505 37.2969L5.07218 36.9539L8.14953 30.5877H11.6089L7.34305 38.6687C6.87614 39.5475 6.32434 40.2334 5.66642 40.7264C5.02973 41.198 4.30814 41.4767 3.50166 41.5624C2.71641 41.6267 1.86748 41.4981 0.99733 41.1337L1.86748 38.5186Z" fill="black"/>
<path d="M15.6627 37.5326L14.0709 35.8822H16.9785C17.4666 35.8822 17.8486 35.775 18.0821 35.5392C18.3368 35.3034 18.4429 35.0033 18.4429 34.6175C18.4429 34.2317 18.3156 33.9316 18.0821 33.6958C17.8486 33.46 17.4879 33.3528 16.9785 33.3528H14.0709L15.6627 31.7023V37.5326ZM12.0972 41.3052V30.5663H17.2119C18.2094 30.5663 19.0584 30.7378 19.78 31.0593C20.5015 31.3808 21.0746 31.8524 21.4566 32.474C21.8598 33.0742 22.0508 33.7815 22.0508 34.6175C22.0508 35.4535 21.8598 36.1608 21.4566 36.761C21.0533 37.3612 20.5015 37.8327 19.78 38.1757C19.0584 38.4972 18.2094 38.6687 17.2119 38.6687H14.0709L15.6627 37.1254V41.3052H12.0972Z" fill="black"/>
<path d="M26.359 38.7759H28.2054C28.5662 38.7759 28.8421 38.6901 29.0331 38.5401C29.2453 38.39 29.3302 38.1757 29.3302 37.8756C29.3302 37.3183 28.9482 37.0396 28.2054 37.0396H26.359V38.7759ZM22.8359 41.3052V30.5663H32.0468V33.2885H26.359V34.5318H28.8845C30.1792 34.5318 31.1766 34.8104 31.8558 35.3677C32.5561 35.925 32.8957 36.7181 32.8957 37.7684C32.8957 38.8616 32.4925 39.719 31.7072 40.3406C30.922 40.9622 29.8184 41.2838 28.4176 41.2838L22.8359 41.3052Z" fill="black"/>
<path d="M35.57 39.4404L36.4826 36.8253H41.3852L42.2978 39.4404H35.57ZM32.811 41.3052L37.4589 30.5663H40.9819L45.6298 41.3052H41.9158L38.4776 32.2811H39.8783L36.4402 41.3052H32.811Z" fill="black"/>
<path d="M49.6411 37.3612V34.3817H53.4401V37.3612H49.6411ZM46.3091 41.3266V30.5877H49.8958V41.3266H46.3091ZM56.7933 30.5663V41.3052H53.2066V30.5663H56.7933Z" fill="black"/>
<path d="M58.3638 41.3052V30.5663H61.8868V36.1608L65.5584 30.5663H68.9329V41.3052H65.4099V35.7535L61.7595 41.3052H58.3638Z" fill="black"/>
<path d="M75.8517 41.5624C75.0027 41.5624 74.2175 41.4337 73.4747 41.1551C72.7531 40.8764 72.1164 40.4906 71.5858 39.9976C71.0552 39.5046 70.652 38.9044 70.3549 38.2185C70.0577 37.5326 69.9092 36.7824 69.9092 35.9464C69.9092 35.1104 70.0577 34.3602 70.3549 33.6743C70.652 32.9884 71.0552 32.3882 71.5858 31.8952C72.1164 31.4022 72.7531 31.0164 73.4747 30.7377C74.1963 30.4591 75.0027 30.3304 75.8517 30.3304C76.8916 30.3304 77.8254 30.5234 78.6107 30.8878C79.4172 31.2521 80.0963 31.788 80.6269 32.4739L78.356 34.5103C78.0377 34.103 77.6981 33.8029 77.3161 33.5886C76.934 33.3528 76.5096 33.2456 76.0427 33.2456C75.6607 33.2456 75.3211 33.3099 75.024 33.4385C74.7268 33.5671 74.4509 33.7386 74.2387 33.9744C74.0265 34.2102 73.8567 34.4888 73.7293 34.8318C73.602 35.1533 73.5383 35.5177 73.5383 35.925C73.5383 36.3322 73.602 36.6966 73.7293 37.0396C73.8567 37.3611 74.0265 37.6398 74.2387 37.8755C74.4509 38.1113 74.7268 38.2828 75.024 38.4114C75.3211 38.54 75.6607 38.6043 76.0427 38.6043C76.5096 38.6043 76.934 38.4972 77.3161 38.2828C77.6981 38.047 78.0589 37.7469 78.356 37.3397L80.6269 39.376C80.0963 40.0619 79.4384 40.5978 78.6107 40.9622C77.8254 41.3694 76.9128 41.5624 75.8517 41.5624Z" fill="black"/>
<path d="M83.7468 41.3052V32.6026L84.532 33.3743H80.627V30.5663H90.3896V33.3743H86.5058L87.2698 32.6026V41.3052H83.7468Z" fill="black"/>
<path d="M91.2598 41.3052V30.5663H94.7828V36.1608L98.4544 30.5663H101.829V41.3052H98.3059V35.7535L94.6555 41.3052H91.2598Z" fill="black"/>
<path d="M109.32 41.3052V30.5663H112.843V41.3052H109.32ZM109.787 37.7041C109.32 37.8756 108.896 37.9828 108.514 38.0685C108.132 38.1543 107.75 38.1971 107.389 38.1971C105.818 38.1971 104.63 37.8327 103.823 37.0825C103.017 36.3323 102.614 35.2391 102.614 33.8244V30.5877H106.137V33.4171C106.137 34.0816 106.285 34.5532 106.561 34.8747C106.837 35.1748 107.283 35.3248 107.856 35.3248C108.259 35.3248 108.599 35.282 108.917 35.2177C109.235 35.1319 109.49 35.0248 109.702 34.8747L109.787 37.7041Z" fill="black"/>
<path d="M117.958 38.583H123.264V41.3052H114.414V30.5663H123.052V33.2885H117.937L117.958 38.583ZM122.436 34.5746V37.1897H117.704V34.5746H122.436Z" fill="black"/>
<path d="M129.758 41.5624C128.909 41.5624 128.124 41.4337 127.381 41.1551C126.66 40.8764 126.044 40.4906 125.493 39.9976C124.962 39.5046 124.559 38.9044 124.262 38.2185C123.964 37.5326 123.816 36.7824 123.816 35.9464C123.816 35.1104 123.964 34.3602 124.262 33.6743C124.559 32.9884 124.962 32.3882 125.493 31.8952C126.023 31.4022 126.66 31.0164 127.381 30.7377C128.103 30.4591 128.909 30.3304 129.758 30.3304C130.798 30.3304 131.732 30.5234 132.517 30.8878C133.324 31.2521 134.003 31.788 134.534 32.4739L132.263 34.5103C131.944 34.103 131.605 33.8029 131.223 33.5886C130.841 33.3528 130.416 33.2456 129.949 33.2456C129.567 33.2456 129.228 33.3099 128.931 33.4385C128.634 33.5671 128.358 33.7386 128.145 33.9744C127.933 34.2102 127.763 34.4888 127.636 34.8318C127.509 35.1533 127.445 35.5177 127.445 35.925C127.445 36.3322 127.509 36.6966 127.636 37.0396C127.763 37.3611 127.933 37.6398 128.145 37.8755C128.358 38.1113 128.634 38.2828 128.931 38.4114C129.228 38.54 129.567 38.6043 129.949 38.6043C130.416 38.6043 130.841 38.4972 131.223 38.2828C131.605 38.047 131.966 37.7469 132.263 37.3397L134.534 39.376C134.003 40.0619 133.345 40.5978 132.517 40.9622C131.732 41.3694 130.798 41.5624 129.758 41.5624Z" fill="black"/>
<path d="M142.408 36.3323L139.118 35.9893L142.174 30.5663H145.909L142.408 36.3323ZM137.781 37.4255V34.5746H141.813V37.4255H137.781ZM135.213 41.3052V30.5663H138.8V41.3052H135.213ZM141.835 41.3052L139.182 36.268L142.047 34.5746L145.867 41.3052H141.835Z" fill="black"/>
<path d="M146.312 41.3052V30.5663H149.836V36.1608L153.486 30.5663H156.86V41.3052H153.337V35.7535L149.687 41.3052H146.312Z" fill="black"/>
<path d="M163.716 29.9661C162.506 29.9661 161.657 29.7303 161.147 29.3016C160.659 28.8515 160.405 28.187 160.405 27.3296H162.782C162.782 27.6725 162.845 27.9083 162.973 28.0798C163.121 28.2299 163.355 28.3156 163.694 28.3156C164.055 28.3156 164.289 28.2299 164.437 28.0798C164.586 27.9083 164.649 27.6725 164.649 27.3296H167.026C167.026 28.187 166.772 28.83 166.241 29.3016C165.774 29.7303 164.925 29.9661 163.716 29.9661ZM158.452 41.3052V30.5663H161.975V36.1608L165.626 30.5663H169V41.3052H165.477V35.7321L161.827 41.3052H158.452Z" fill="black"/>
<path d="M5.53905 57.1456V45.3135H8.82864V57.1456H5.53905ZM7.10957 53.223H7.27935H7.42791C8.25562 53.223 8.91353 53.1587 9.40167 53.0301C9.8898 52.88 10.2506 52.6657 10.484 52.3656C10.6963 52.0655 10.8236 51.6582 10.8236 51.1652C10.8236 50.6722 10.7175 50.2864 10.484 50.0077C10.2506 49.7076 9.8898 49.4933 9.38044 49.3647C8.89231 49.2361 8.25562 49.1718 7.47036 49.1718H7.27935H7.08834C6.21819 49.1718 5.51783 49.2361 4.98725 49.3647C4.47789 49.4933 4.09588 49.7076 3.86242 49.9863C3.62897 50.2864 3.52285 50.6722 3.52285 51.1867C3.52285 51.7011 3.65019 52.0869 3.92609 52.387C4.18077 52.6871 4.58401 52.9014 5.11459 53.0301C5.64517 53.1587 6.30309 53.223 7.10957 53.223ZM6.79122 55.9881C5.32682 55.9881 4.09588 55.7952 3.07717 55.4308C2.07968 55.0664 1.33687 54.5091 0.82751 53.8017C0.318154 53.0944 0.0634766 52.2155 0.0634766 51.1867C0.0634766 50.1578 0.318154 49.2789 0.82751 48.5716C1.33687 47.8642 2.07968 47.3069 3.09839 46.9425C4.1171 46.5781 5.32682 46.3852 6.81244 46.3852H7.06712H7.49158H7.72504C9.16821 46.3852 10.3779 46.5781 11.3542 46.9425C12.3305 47.3069 13.0733 47.8428 13.5826 48.5716C14.0708 49.2789 14.3254 50.1363 14.3254 51.1652C14.3254 52.1727 14.092 53.0515 13.6039 53.7588C13.1369 54.4662 12.4154 55.0235 11.4603 55.4093C10.5053 55.7952 9.338 55.9667 7.91605 55.9667H7.61892H7.13079L6.79122 55.9881Z" fill="black"/>
<path d="M20.6715 53.9089C21.011 53.9089 21.3082 53.8446 21.6053 53.716C21.9024 53.5874 22.1571 53.4159 22.3693 53.2015C22.6028 52.9658 22.7725 52.6871 22.8787 52.3656C23.006 52.0226 23.0697 51.6582 23.0697 51.2295C23.0697 50.8008 23.006 50.4364 22.8787 50.1149C22.7513 49.7719 22.5815 49.4933 22.3693 49.2789C22.1571 49.0432 21.9024 48.8717 21.6053 48.7431C21.3294 48.6145 21.011 48.5502 20.6715 48.5502C20.3319 48.5502 20.0135 48.6145 19.7376 48.7431C19.4617 48.8717 19.2071 49.0432 18.9736 49.2789C18.7614 49.5147 18.5916 49.7934 18.4642 50.1149C18.3369 50.4364 18.2732 50.8223 18.2732 51.2295C18.2732 51.6368 18.3369 52.0226 18.4642 52.3656C18.5916 52.6871 18.7614 52.9658 18.9736 53.2015C19.2071 53.4373 19.4405 53.6088 19.7376 53.716C20.0135 53.8446 20.3319 53.9089 20.6715 53.9089ZM20.6715 56.8455C19.8013 56.8455 19.016 56.7169 18.2732 56.4382C17.5517 56.1596 16.915 55.7737 16.3844 55.2807C15.8538 54.7663 15.4293 54.1661 15.1322 53.4802C14.8351 52.7943 14.6865 52.044 14.6865 51.251C14.6865 50.4364 14.8351 49.6862 15.1322 49.0217C15.4293 48.3358 15.8538 47.7356 16.3844 47.2426C16.915 46.7282 17.5517 46.3424 18.2732 46.0637C19.016 45.785 19.8013 45.6564 20.6715 45.6564C21.5416 45.6564 22.3481 45.785 23.0697 46.0637C23.7913 46.3424 24.428 46.7282 24.9585 47.2426C25.4891 47.7356 25.9136 48.3358 26.2107 49.0217C26.5078 49.6862 26.6776 50.4364 26.6776 51.251C26.6776 52.0655 26.529 52.7943 26.2107 53.4802C25.9136 54.1661 25.5103 54.7663 24.9585 55.2807C24.428 55.7737 23.7913 56.1596 23.0697 56.4382C22.3481 56.6954 21.5416 56.8455 20.6715 56.8455Z" fill="black"/>
<path d="M31.2405 52.8157L29.6488 51.1652H32.5564C33.0445 51.1652 33.4265 51.0581 33.6387 50.8223C33.8722 50.5865 33.9995 50.2864 33.9995 49.9006C33.9995 49.5147 33.8722 49.2147 33.6387 48.9789C33.4053 48.7431 33.0445 48.6359 32.5564 48.6359H29.6488L31.2405 46.9854V52.8157ZM27.6538 56.5883V45.8494H32.7686C33.7661 45.8494 34.615 46.0208 35.3366 46.3424C36.0582 46.6639 36.6312 47.1355 37.0132 47.7571C37.4165 48.3573 37.6075 49.086 37.6075 49.9006C37.6075 50.7365 37.4165 51.4439 37.0132 52.0441C36.61 52.6442 36.0582 53.1158 35.3366 53.4588C34.615 53.7803 33.7661 53.9518 32.7686 53.9518H29.6276L31.2193 52.4085V56.5883H27.6538Z" fill="black"/>
<path d="M42.2131 55.0664L37.2681 45.8708H41.0458L44.1656 52.5799L42.2131 55.0664ZM39.0296 53.7803C39.6663 53.9518 40.1544 53.9946 40.494 53.9518C40.8548 53.8875 41.1519 53.6731 41.4278 53.2873L41.9372 52.5585L42.2343 52.2155L45.3116 45.8494H48.771L44.5052 53.9303C44.0383 54.8092 43.4865 55.4951 42.8285 55.9881C42.1706 56.4597 41.4703 56.7383 40.6638 56.8241C39.8785 56.8884 39.0296 56.7598 38.1594 56.3954L39.0296 53.7803Z" fill="black"/>
<path d="M49.2378 56.5883V45.8494H52.1878L56.4537 52.8586H54.8832L59.0217 45.8494H61.9717L61.9929 56.5883H58.7458L58.7033 50.8223H59.2127L56.39 55.6237H54.8195L51.8695 50.8223H52.5062V56.5883H49.2378Z" fill="black"/>
<path d="M101.765 45.7208H66.2798V56.6312H101.765V45.7208Z" fill="#0080C5"/>
<path d="M37.5648 61.0682H0.0634766V72H37.5648V61.0682Z" fill="#0080C5"/>
<path d="M71.0337 -0.0214233H0.0634766V10.9104H71.0337V-0.0214233Z" fill="#0080C5"/>
</g>
<defs>
<clipPath id="clip0_17_8">
<rect width="169" height="72" fill="white"/>
</clipPath>
</defs>
</svg>
