<svg width="130" height="54" viewBox="0 0 130 54" fill="none" xmlns="http://www.w3.org/2000/svg">
<path d="M9.79155 11.4722H7.52405L4.93332 15.7576L2.26587 11.4722H0V19.5254H2.51237V15.9778L4.2885 18.8004H5.50305L7.28244 15.8508L7.30203 19.5254H9.8144L9.79155 11.4722Z" fill="white"/>
<path d="M15.1772 17.5109C15.4335 17.5109 15.6718 17.4659 15.8906 17.3727C16.1158 17.2811 16.3117 17.1493 16.475 16.9821C16.6464 16.8053 16.7786 16.5947 16.8717 16.3488C16.9647 16.0964 17.0121 15.8119 17.0121 15.4968C17.0121 15.1818 16.9647 14.9021 16.8717 14.6577C16.7786 14.4038 16.6464 14.1932 16.475 14.0244C16.3117 13.8476 16.1158 13.7142 15.8906 13.6226C15.6718 13.5309 15.4351 13.4843 15.1772 13.4843C14.9192 13.4843 14.6793 13.5293 14.4524 13.6226C14.2336 13.7142 14.0393 13.8492 13.8679 14.0244C13.7047 14.1932 13.5757 14.4038 13.4827 14.6577C13.3896 14.9037 13.3423 15.1834 13.3423 15.4968C13.3423 15.8103 13.3896 16.0948 13.4827 16.3488C13.5757 16.5947 13.7047 16.8053 13.8679 16.9821C14.0393 17.1509 14.2336 17.2811 14.4524 17.3727C14.6776 17.4659 14.9192 17.5109 15.1772 17.5109ZM15.1772 19.7083C14.5144 19.7083 13.8989 19.6054 13.3308 19.3981C12.7693 19.1907 12.2828 18.8998 11.8698 18.5236C11.4568 18.1394 11.1335 17.691 10.9001 17.1782C10.6748 16.6638 10.5605 16.1044 10.5605 15.4984C10.5605 14.8844 10.6732 14.325 10.9001 13.8187C11.1335 13.3043 11.4568 12.859 11.8698 12.4845C12.2828 12.1003 12.7693 11.8062 13.3308 11.5988C13.8989 11.3914 14.5144 11.2886 15.1772 11.2886C15.8465 11.2886 16.4619 11.3914 17.0235 11.5988C17.5851 11.8062 18.0715 12.1003 18.4845 12.4845C18.8976 12.8606 19.2159 13.3059 19.4428 13.8187C19.6762 14.325 19.7938 14.8844 19.7938 15.4984C19.7938 16.1044 19.6779 16.6638 19.4428 17.1782C19.2159 17.6926 18.8976 18.141 18.4845 18.5236C18.0715 18.8998 17.5851 19.1907 17.0235 19.3981C16.4619 19.6054 15.8465 19.7083 15.1772 19.7083Z" fill="white"/>
<path d="M24.6633 19.7083C24.0087 19.7083 23.4014 19.6086 22.8415 19.4093C22.2881 19.202 21.8049 18.911 21.3919 18.5349C20.987 18.1587 20.6703 17.7135 20.445 17.2007C20.2181 16.6863 20.1055 16.1189 20.1055 15.4984C20.1055 14.878 20.2181 14.3089 20.445 13.7962C20.6703 13.2818 20.987 12.8365 21.3919 12.462C21.8049 12.0859 22.2881 11.7981 22.8415 11.5988C23.4031 11.3914 24.0103 11.2886 24.6633 11.2886C25.4665 11.2886 26.175 11.4268 26.7904 11.7033C27.414 11.9798 27.9266 12.3784 28.3331 12.8992L26.5913 14.4295C26.3497 14.1305 26.0803 13.9006 25.7848 13.7399C25.4959 13.5711 25.1694 13.4875 24.8037 13.4875C24.5148 13.4875 24.2552 13.5325 24.0201 13.6258C23.7867 13.7174 23.5843 13.8524 23.4128 14.0276C23.2496 14.2045 23.1206 14.4182 23.0276 14.6722C22.9345 14.9181 22.8872 15.1946 22.8872 15.5C22.8872 15.8071 22.9345 16.0868 23.0276 16.3391C23.1206 16.5851 23.2496 16.7956 23.4128 16.9724C23.5843 17.1493 23.7867 17.2827 24.0201 17.3759C24.2536 17.4675 24.5148 17.5141 24.8037 17.5141C25.1694 17.5141 25.4975 17.4338 25.7848 17.273C26.0803 17.1043 26.3497 16.8712 26.5913 16.5706L28.3331 18.1009C27.9283 18.6136 27.414 19.0139 26.7904 19.2968C26.175 19.5701 25.4649 19.7083 24.6633 19.7083Z" fill="white"/>
<path d="M34.3879 15.7865L31.8527 15.5341L34.2018 11.4722H37.0766L34.3879 15.7865ZM30.8242 16.6143V14.4748H33.921V16.6143H30.8242ZM28.8604 19.5254V11.4722H31.6176V19.5254H28.8604ZM33.9553 19.5254L31.9229 15.7511L34.1185 14.4861L37.0635 19.5254H33.9553Z" fill="white"/>
<path d="M41.4941 17.5109C41.7504 17.5109 41.9887 17.4659 42.2074 17.3727C42.4327 17.2811 42.6286 17.1493 42.7919 16.9821C42.9633 16.8053 43.0955 16.5947 43.1886 16.3488C43.2816 16.0964 43.329 15.8119 43.329 15.4968C43.329 15.1818 43.2832 14.9021 43.1886 14.6577C43.0955 14.4038 42.9617 14.1932 42.7919 14.0244C42.6286 13.8476 42.4327 13.7142 42.2074 13.6226C41.9887 13.5309 41.752 13.4843 41.4941 13.4843C41.2378 13.4843 40.9962 13.5293 40.7692 13.6226C40.5505 13.7142 40.3562 13.8492 40.1848 14.0244C40.0216 14.1932 39.8926 14.4038 39.7996 14.6577C39.7065 14.9037 39.6592 15.1834 39.6592 15.4968C39.6592 15.8103 39.7065 16.0948 39.7996 16.3488C39.8926 16.5947 40.0216 16.8053 40.1848 16.9821C40.3562 17.1509 40.5505 17.2811 40.7692 17.3727C40.9962 17.4659 41.2378 17.5109 41.4941 17.5109ZM41.4941 19.7083C40.8313 19.7083 40.2158 19.6054 39.6477 19.3981C39.0862 19.1907 38.5997 18.8998 38.1867 18.5236C37.7737 18.1394 37.4504 17.691 37.217 17.1782C36.9901 16.6638 36.8774 16.1044 36.8774 15.4984C36.8774 14.8844 36.9901 14.325 37.217 13.8187C37.4504 13.3043 37.7737 12.859 38.1867 12.4845C38.5997 12.1003 39.0862 11.8062 39.6477 11.5988C40.2158 11.3914 40.8313 11.2886 41.4941 11.2886C42.1634 11.2886 42.7788 11.3914 43.3404 11.5988C43.902 11.8062 44.3884 12.1003 44.8014 12.4845C45.2145 12.8606 45.5328 13.3059 45.7597 13.8187C45.9931 14.325 46.1107 14.8844 46.1107 15.4984C46.1107 16.1044 45.9948 16.6638 45.7597 17.1782C45.5328 17.6926 45.2145 18.141 44.8014 18.5236C44.3884 18.8998 43.902 19.1907 43.3404 19.3981C42.7804 19.6054 42.165 19.7083 41.4941 19.7083Z" fill="white"/>
<path d="M49.5797 14.5665H50.7485C50.982 14.5665 51.1534 14.5166 51.2628 14.417C51.3721 14.3173 51.426 14.171 51.426 13.9798C51.426 13.7804 51.3721 13.6309 51.2628 13.5313C51.1534 13.4236 50.982 13.3705 50.7485 13.3705H49.5797V14.5665ZM49.5797 17.627H51.1109C51.3362 17.627 51.5044 17.574 51.6138 17.4663C51.7313 17.3521 51.7884 17.1898 51.7884 16.9824C51.7884 16.7751 51.7297 16.6224 51.6138 16.5227C51.5044 16.415 51.3379 16.362 51.1109 16.362H49.5797V17.627ZM46.8682 19.5254V11.4722H51.0163C52.0284 11.4722 52.812 11.657 53.3654 12.0251C53.9253 12.3932 54.2061 12.9108 54.2061 13.5779C54.2061 14.2289 53.9498 14.7481 53.4356 15.1307C52.9214 15.5068 52.2276 15.6949 51.3558 15.6949L51.5893 15.0728C52.5165 15.0728 53.2446 15.2528 53.7751 15.6129C54.3041 15.973 54.5685 16.4986 54.5685 17.1882C54.5685 17.9019 54.2812 18.4693 53.7049 18.8905C53.1287 19.3132 52.3059 19.5238 51.2399 19.5238H46.8682V19.5254Z" fill="white"/>
<path d="M59.4299 19.7083C58.7753 19.7083 58.168 19.6086 57.6081 19.4093C57.0547 19.202 56.5715 18.911 56.1585 18.5349C55.7536 18.1587 55.4369 17.7135 55.2116 17.2007C54.9863 16.6863 54.8721 16.1189 54.8721 15.4984C54.8721 14.878 54.9847 14.3089 55.2116 13.7962C55.4369 13.2818 55.7536 12.8365 56.1585 12.462C56.5715 12.0859 57.0547 11.7981 57.6081 11.5988C58.1697 11.3914 58.7769 11.2886 59.4299 11.2886C60.2331 11.2886 60.9416 11.4268 61.557 11.7033C62.1806 11.9798 62.6932 12.3784 63.0997 12.8992L61.3579 14.4295C61.1163 14.1305 60.8485 13.9006 60.5514 13.7399C60.2625 13.5711 59.936 13.4875 59.5703 13.4875C59.283 13.4875 59.0218 13.5325 58.7867 13.6258C58.5533 13.7174 58.3509 13.8524 58.1795 14.0276C58.0162 14.2045 57.8872 14.4182 57.7942 14.6722C57.7011 14.9181 57.6538 15.1946 57.6538 15.5C57.6538 15.8071 57.7011 16.0868 57.7942 16.3391C57.8872 16.5851 58.0162 16.7956 58.1795 16.9724C58.3509 17.1493 58.5533 17.2827 58.7867 17.3759C59.0202 17.4675 59.2814 17.5141 59.5703 17.5141C59.936 17.5141 60.2641 17.4338 60.5514 17.273C60.8469 17.1043 61.1163 16.8712 61.3579 16.5706L63.0997 18.1009C62.6949 18.6136 62.1806 19.0139 61.557 19.2968C60.9416 19.5701 60.2331 19.7083 59.4299 19.7083Z" fill="white"/>
<path d="M69.1564 15.7865L66.6212 15.5341L68.9703 11.4722H71.8451L69.1564 15.7865ZM65.5911 16.6143V14.4748H68.6879V16.6143H65.5911ZM63.6289 19.5254V11.4722H66.3861V19.5254H63.6289ZM68.7238 19.5254L66.6914 15.7511L68.8887 14.4861L71.8337 19.5254H68.7238Z" fill="white"/>
<path d="M72.1602 19.525V11.4702H74.8701V15.6592L77.6861 11.4702H80.2817V19.525H77.5702V15.3489L74.7656 19.525H72.1602Z" fill="white"/>
<path d="M85.5546 11.0105C84.6273 11.0105 83.9694 10.8417 83.5793 10.5041C83.1973 10.1585 83.0063 9.66828 83.0063 9.03174H84.8412C84.8412 9.2841 84.8918 9.47217 84.993 9.59595C85.1024 9.71007 85.2885 9.76794 85.5546 9.76794C85.8272 9.76794 86.0182 9.71007 86.1276 9.59595C86.2369 9.47378 86.2908 9.28571 86.2908 9.03174H88.1257C88.1257 9.66828 87.9265 10.1585 87.5299 10.5041C87.1397 10.8417 86.4818 11.0105 85.5546 11.0105ZM81.4995 19.525V11.4718H84.211V15.6592L87.027 11.4718H89.621V19.525H86.9095V15.3489L84.1049 19.525H81.4995Z" fill="white"/>
<path d="M3.88667 29.8336L0.078125 22.9297H2.98718L5.38202 27.9577L3.88667 29.8336ZM1.43307 28.8788C1.91628 29.001 2.29338 29.0444 2.56601 29.0058C2.83863 28.9608 3.08023 28.7952 3.29082 28.5107L3.68751 27.9577L3.92096 27.7054L6.29293 22.9313H8.95712L5.67423 28.9945C5.31508 29.6536 4.88411 30.1679 4.37805 30.536C3.88014 30.8961 3.32674 31.1035 2.71946 31.1581C2.11218 31.2112 1.46899 31.1051 0.791514 30.8366L1.43307 28.8788Z" fill="white"/>
<path d="M12.0557 28.1426L10.8298 26.9113H13.0597C13.4417 26.9113 13.7209 26.8261 13.9004 26.6589C14.0882 26.4901 14.1812 26.2603 14.1812 25.9677C14.1812 25.6752 14.0882 25.4469 13.9004 25.2765C13.7209 25.1078 13.4417 25.0242 13.0597 25.0242H10.8281L12.0541 23.7929V28.1426H12.0557ZM9.29688 30.9829V22.9297H13.2344C13.9984 22.9297 14.6563 23.0519 15.208 23.2978C15.7696 23.5437 16.2022 23.8958 16.5042 24.3571C16.8079 24.8088 16.9597 25.3457 16.9597 25.9677C16.9597 26.5898 16.8079 27.1267 16.5042 27.5784C16.2006 28.0317 15.768 28.3837 15.208 28.6377C14.6546 28.8836 13.9968 29.0058 13.2344 29.0058H10.8281L12.0541 27.8436V30.9845H9.29688V30.9829Z" fill="white"/>
<path d="M20.2753 29.0845H21.689C21.9617 29.0845 22.1723 29.0267 22.3208 28.9125C22.4775 28.7984 22.5543 28.6328 22.5543 28.4175C22.5543 28.0027 22.2653 27.7954 21.689 27.7954H20.2753V29.0845ZM17.5654 30.9829V22.9297H24.6569V24.9776H20.2753V25.9099H22.2261C23.2236 25.9099 23.9859 26.1204 24.5165 26.5432C25.0536 26.9579 25.3229 27.5591 25.3229 28.3499C25.3229 29.1713 25.0193 29.8143 24.412 30.2821C23.8047 30.7498 22.9591 30.9845 21.8768 30.9845H17.5654V30.9829Z" fill="white"/>
<path d="M27.36 29.5796L28.0603 27.6234H31.8232L32.5251 29.5796H27.36ZM25.2329 30.9829L28.808 22.9297H31.5179L35.093 30.9829H32.2411L29.6014 24.2188H30.6756L28.0342 30.9829H25.2329Z" fill="white"/>
<path d="M38.1869 28.0156V25.7829H41.1073V28.014H38.1869V28.0156ZM35.6157 30.9845V22.9313H38.373V30.9845H35.6157ZM43.6785 22.9297V30.9829H40.9212V22.9297H43.6785Z" fill="white"/>
<path d="M44.8994 30.9829V22.9297H47.6093V27.1187L50.4253 22.9297H53.0193V30.9829H50.3078V26.8084L47.5032 30.9829H44.8994Z" fill="white"/>
<path d="M58.351 31.1678C57.6964 31.1678 57.0891 31.0681 56.5275 30.8688C55.9741 30.6614 55.4909 30.3705 55.0779 29.9943C54.673 29.6182 54.358 29.1729 54.1311 28.6602C53.9041 28.1458 53.7915 27.5784 53.7915 26.9579C53.7915 26.3358 53.9041 25.7684 54.1311 25.2556C54.3563 24.7429 54.673 24.296 55.0779 23.9215C55.4909 23.5453 55.9741 23.2576 56.5275 23.0583C57.0891 22.8509 57.6964 22.748 58.351 22.748C59.1525 22.748 59.8627 22.8863 60.4781 23.1628C61.1017 23.4392 61.6159 23.8379 62.0208 24.3587L60.2789 25.889C60.0373 25.59 59.768 25.3601 59.4725 25.1978C59.1835 25.029 58.857 24.9454 58.4914 24.9454C58.2024 24.9454 57.9412 24.992 57.7078 25.0836C57.4744 25.1753 57.2719 25.3103 57.1005 25.4855C56.9373 25.6623 56.8083 25.8761 56.7153 26.1301C56.6222 26.376 56.5749 26.6525 56.5749 26.9579C56.5749 27.2649 56.6206 27.5446 56.7153 27.797C56.8083 28.0429 56.9373 28.2535 57.1005 28.4303C57.2719 28.6071 57.4744 28.7405 57.7078 28.8322C57.9412 28.9238 58.2024 28.9704 58.4914 28.9704C58.857 28.9704 59.1852 28.89 59.4725 28.7293C59.768 28.5605 60.0373 28.3274 60.2789 28.0268L62.0208 29.5571C61.6159 30.0715 61.1017 30.4701 60.4781 30.753C59.8627 31.0295 59.1525 31.1678 58.351 31.1678Z" fill="white"/>
<path d="M64.4204 30.9829V24.4487L65.0146 25.0354H62.0239V22.9297H69.5251V25.0354H66.5344L67.1303 24.4487V30.9829H64.4204Z" fill="white"/>
<path d="M70.2012 30.9829V22.9297H72.9127V27.1187L75.7287 22.9297H78.3227V30.9829H75.6112V26.8084L72.8066 30.9829H70.2012Z" fill="white"/>
<path d="M84.0919 30.9829V22.9297H86.8018V30.9829H84.0919ZM84.4543 28.2792C84.1033 28.403 83.7768 28.4946 83.4732 28.5557C83.1777 28.6168 82.8888 28.6473 82.608 28.6473C81.4081 28.6473 80.4939 28.3676 79.8622 27.8082C79.2386 27.2489 78.9268 26.4307 78.9268 25.3569V22.9297H81.6383V25.0579C81.6383 25.5482 81.7477 25.9131 81.9648 26.151C82.1835 26.3808 82.5149 26.4966 82.959 26.4966C83.2626 26.4966 83.5352 26.4692 83.7768 26.4162C84.0184 26.3551 84.2208 26.2699 84.3841 26.1638L84.4543 28.2792Z" fill="white"/>
<path d="M90.7242 28.937H94.8136V30.9849H88.0127V22.9316H94.6601V24.9795H90.7226V28.937H90.7242ZM94.1818 25.9215V27.8777H90.5365V25.9215H94.1818Z" fill="white"/>
<path d="M99.8106 31.1678C99.156 31.1678 98.5487 31.0681 97.9888 30.8688C97.4354 30.6614 96.9522 30.3705 96.5391 29.9943C96.1343 29.6182 95.8192 29.1729 95.5923 28.6602C95.367 28.1458 95.2544 27.5784 95.2544 26.9579C95.2544 26.3358 95.367 25.7684 95.5923 25.2556C95.8192 24.7429 96.1343 24.296 96.5391 23.9215C96.9522 23.5453 97.4354 23.2576 97.9888 23.0583C98.5487 22.8509 99.1576 22.748 99.8106 22.748C100.612 22.748 101.322 22.8863 101.938 23.1628C102.561 23.4392 103.076 23.8379 103.48 24.3587L101.739 25.889C101.497 25.59 101.228 25.3601 100.932 25.1978C100.643 25.029 100.317 24.9454 99.951 24.9454C99.6621 24.9454 99.4025 24.992 99.1674 25.0836C98.934 25.1753 98.7316 25.3103 98.5601 25.4855C98.3969 25.6623 98.2679 25.8761 98.1749 26.1301C98.0818 26.376 98.0345 26.6525 98.0345 26.9579C98.0345 27.2649 98.0818 27.5446 98.1749 27.797C98.2679 28.0429 98.3969 28.2535 98.5601 28.4303C98.7316 28.6071 98.934 28.7405 99.1674 28.8322C99.4009 28.9238 99.6621 28.9704 99.951 28.9704C100.317 28.9704 100.645 28.89 100.932 28.7293C101.228 28.5605 101.497 28.3274 101.739 28.0268L103.48 29.5571C103.076 30.0715 102.561 30.4701 101.938 30.753C101.322 31.0295 100.614 31.1678 99.8106 31.1678Z" fill="white"/>
<path d="M109.535 27.244L107 26.9917L109.349 22.9313H112.224L109.535 27.244ZM105.972 28.0735V25.934H109.068V28.0735H105.972ZM104.009 30.9829V22.9297H106.767V30.9829H104.009ZM109.103 30.9829L107.07 27.2087L109.267 25.9436L112.212 30.9829H109.103Z" fill="white"/>
<path d="M112.541 30.9829V22.9297H115.25V27.1187L118.066 22.9297H120.66V30.9829H117.949V26.8084L115.146 30.9829H112.541Z" fill="white"/>
<path d="M125.933 22.47C125.006 22.47 124.348 22.3012 123.958 21.9636C123.576 21.618 123.385 21.1278 123.385 20.4912H125.22C125.22 20.7436 125.271 20.9316 125.372 21.0554C125.481 21.1695 125.667 21.2274 125.933 21.2274C126.206 21.2274 126.397 21.1695 126.506 21.0554C126.616 20.9333 126.67 20.7452 126.67 20.4912H128.504C128.504 21.1278 128.305 21.618 127.909 21.9636C127.518 22.3012 126.861 22.47 125.933 22.47ZM121.88 30.9829V22.9297H124.591V27.117L127.407 22.9297H130.001V30.9829H127.29V26.8068L124.485 30.9829H121.88Z" fill="white"/>
<path d="M4.25895 42.8571V33.9873H6.78275V42.8571H4.25895ZM5.46208 39.9123H5.59104H5.72001C6.35177 39.9123 6.85784 39.8625 7.2382 39.7628C7.6202 39.6551 7.89609 39.4911 8.0675 39.2677C8.23891 39.0378 8.3238 38.7389 8.3238 38.3708C8.3238 38.0027 8.23401 37.7117 8.05607 37.4963C7.8765 37.2745 7.59571 37.1121 7.21535 37.0125C6.84151 36.9128 6.35504 36.863 5.75429 36.863H5.6139H5.46208C4.79113 36.863 4.25405 36.9128 3.8492 37.0125C3.45251 37.1041 3.16356 37.2616 2.98562 37.4835C2.80605 37.7069 2.71627 38.0043 2.71627 38.3804C2.71627 38.7565 2.81748 39.0587 3.01991 39.2886C3.22233 39.512 3.52597 39.6728 3.93082 39.7724C4.34384 39.8657 4.8548 39.9123 5.46208 39.9123ZM5.21721 41.9827C4.08754 41.9827 3.13744 41.8444 2.36692 41.5679C1.60292 41.2915 1.02666 40.8848 0.638135 40.3479C0.247975 39.811 0.0537109 39.1552 0.0537109 38.3804C0.0537109 37.6056 0.247975 36.953 0.638135 36.4242C1.02666 35.8873 1.60782 35.4806 2.37835 35.2041C3.14887 34.9276 4.1006 34.7894 5.22864 34.7894H5.41637H5.74286H5.91754C7.03088 34.7894 7.96139 34.9309 8.71069 35.2154C9.46652 35.4919 10.0346 35.8985 10.4166 36.4354C10.7986 36.9643 10.988 37.6121 10.988 38.3788C10.988 39.1375 10.8019 39.7853 10.428 40.3238C10.0624 40.8607 9.51223 41.2706 8.78089 41.5551C8.04954 41.8396 7.14189 41.9811 6.05793 41.9811H5.82449H5.45065H5.21721V41.9827Z" fill="white"/>
<path d="M15.9018 40.4299C16.1597 40.4299 16.3964 40.3833 16.6152 40.2916C16.8421 40.2 17.0363 40.0698 17.1996 39.901C17.371 39.7242 17.5032 39.5136 17.5963 39.2677C17.6893 39.0153 17.7367 38.7308 17.7367 38.4174C17.7367 38.1023 17.691 37.8226 17.5963 37.5767C17.5032 37.3243 17.3694 37.1121 17.1996 36.9434C17.0363 36.7665 16.8404 36.6331 16.6152 36.5415C16.3964 36.4499 16.1597 36.4033 15.9018 36.4033C15.6455 36.4033 15.4039 36.4483 15.177 36.5415C14.9582 36.6331 14.7639 36.7682 14.5925 36.9434C14.4293 37.1121 14.3003 37.3227 14.2073 37.5767C14.1142 37.8226 14.0669 38.1023 14.0669 38.4174C14.0669 38.7308 14.1126 39.0153 14.2073 39.2677C14.3003 39.5136 14.4293 39.7242 14.5925 39.901C14.7639 40.0698 14.9582 40.2 15.177 40.2916C15.4022 40.3833 15.6438 40.4299 15.9018 40.4299ZM15.9018 42.6272C15.2406 42.6272 14.6252 42.5228 14.0555 42.317C13.4939 42.1096 13.0074 41.8187 12.5944 41.4426C12.1814 41.06 11.8582 40.6115 11.6247 40.0971C11.3994 39.5844 11.2852 39.0234 11.2852 38.4174C11.2852 37.8033 11.3978 37.244 11.6247 36.7376C11.8582 36.2248 12.1814 35.7796 12.5944 35.4034C13.0074 35.0209 13.4939 34.7251 14.0555 34.5178C14.6236 34.3104 15.239 34.2075 15.9018 34.2075C16.5727 34.2075 17.1882 34.3104 17.7481 34.5178C18.3097 34.7251 18.7961 35.0209 19.2092 35.4034C19.6222 35.7796 19.9421 36.2248 20.1674 36.7376C20.4009 37.244 20.5184 37.8033 20.5184 38.4174C20.5184 39.0234 20.4009 39.5828 20.1674 40.0971C19.9421 40.6115 19.6222 41.06 19.2092 41.4426C18.7961 41.8187 18.3097 42.1096 17.7481 42.317C17.1865 42.5228 16.5711 42.6272 15.9018 42.6272Z" fill="white"/>
<path d="M24.0331 39.6004L22.8071 38.3692H25.0387C25.4207 38.3692 25.7015 38.284 25.8794 38.1168C26.0655 37.948 26.1602 37.7181 26.1602 37.4256C26.1602 37.1347 26.0672 36.9048 25.8794 36.7344C25.6999 36.5656 25.4207 36.482 25.0387 36.482H22.8055L24.0315 35.2507V39.6004H24.0331ZM21.2759 42.4424V34.3892H25.2134C25.9774 34.3892 26.6353 34.5113 27.1887 34.7573C27.7486 35.0032 28.1812 35.3552 28.4849 35.8149C28.7885 36.2682 28.9403 36.8051 28.9403 37.4256C28.9403 38.0477 28.7885 38.5846 28.4849 39.0362C28.1812 39.4879 27.7486 39.8416 27.1887 40.0939C26.6353 40.3399 25.9774 40.462 25.2134 40.462H22.8055L24.0315 39.2999V42.4408H21.2759V42.4424Z" fill="white"/>
<path d="M32.4682 41.2931L28.6597 34.3908H31.5687L33.9636 39.4188L32.4682 41.2931ZM30.0146 40.3383C30.4978 40.4604 30.8749 40.5038 31.1476 40.4652C31.4202 40.4186 31.6618 40.2547 31.8724 39.9702L32.2691 39.4172L32.5025 39.1632L34.8745 34.3892H37.5387L34.2558 40.4524C33.8983 41.1114 33.4657 41.6258 32.9596 41.9939C32.4617 42.354 31.9083 42.5613 31.301 42.616C30.6937 42.669 30.0505 42.5629 29.3731 42.2945L30.0146 40.3383Z" fill="white"/>
<path d="M37.8779 42.4424V34.3892H40.1438L43.4153 39.6471H42.2236L45.402 34.3892H47.6695L47.6923 42.4424H45.18L45.1571 38.1168H45.5538L43.381 41.7174H42.1664L39.8989 38.1168H40.3887V42.4424H37.8779Z" fill="white"/>
<path d="M78.2783 34.2798H50.9883V42.4696H78.2783V34.2798Z" fill="#0080C5"/>
<path d="M28.8965 45.7954H0.0458984V53.9853H28.8965V45.7954Z" fill="#0080C5"/>
<path d="M54.6275 -0.0146484H0.0458984V8.17521H54.6275V-0.0146484Z" fill="#0080C5"/>
</svg>
